<svg width="68" height="67" xmlns="http://www.w3.org/2000/svg" xmlns:xlink="http://www.w3.org/1999/xlink" xml:space="preserve" overflow="hidden"><g transform="translate(-644 -335)"><path d="M4.58322 36.2624 9.112 40.7904 12.5625 37.5228 12.5625 60.0041 30.0104 60.0111 30.0104 42.5848 36.9896 42.5848 36.9896 60.0139 54.4375 60.0208 54.4375 37.4935 57.9054 40.7737 62.4168 36.2631 33.5 8.79375ZM53.0417 58.625 38.3854 58.6187 38.3854 41.1889 28.6146 41.1889 28.6146 58.6145 13.9583 58.6089 13.9583 36.2009 33.5 17.695 53.0417 36.1737ZM9.13852 38.8433 6.58345 36.2917 33.5 10.7172 60.4166 36.2917 57.8782 38.8265 33.5 15.7729Z" transform="matrix(1.01493 0 0 1 644 335)"/></g></svg>