<svg xmlns="http://www.w3.org/2000/svg" width="200" height="200" viewBox="0 0 200 200">
    <script xmlns="" />
    <!-- 배경 (연한 크림색) -->
    <rect x="10" y="10" width="180" height="180" rx="25" ry="25" fill="#faf8f0" stroke="#7dd3c0" stroke-width="8" />
    <!-- NFC 텍스트 -->
    <text x="30" y="85" font-family="Arial, sans-serif" font-size="45" font-weight="bold" fill="#2196f3" text-anchor="start">NFC</text>
    <!-- 온도계 아이콘 -->
    <g transform="translate(140, 30)">
        <!-- 온도계 튜브 -->
        <rect x="0" y="5" width="20" height="80" rx="10" ry="10" fill="#2196f3" />
        <!-- 온도계 내부 -->
        <rect x="6" y="11" width="8" height="68" rx="4" ry="4" fill="#faf8f0" />
        <!-- 온도계 구 -->
        <circle cx="10" cy="80" r="15" fill="#2196f3" />
        <!-- 온도계 내부 구 -->
        <circle cx="10" cy="80" r="8" fill="#faf8f0" />
        <!-- 수은 표시 -->
        <rect x="8" y="15" width="4" height="60" rx="2" ry="2" fill="#2196f3" />
        <circle cx="10" cy="80" r="6" fill="#2196f3" />
    </g>
    <!-- NFC 안테나/코일 표현 -->
    <g transform="translate(30, 110)">
        <!-- 코일 형태의 안테나 -->
        <path d="M 0 10 L 80 10" stroke="#7dd3c0" stroke-width="6" fill="none" stroke-linecap="round" />
        <path d="M 0 10 L 0 0 L 15 0" stroke="#7dd3c0" stroke-width="6" fill="none" stroke-linecap="round" />
        <circle cx="90" cy="10" r="8" fill="#7dd3c0" />
    </g>
    <!-- 회로 패턴들 -->
    <g transform="translate(30, 130)">
        <!-- 첫 번째 라인 -->
        <line x1="0" y1="0" x2="130" y2="0" stroke="#7dd3c0" stroke-width="4" />
        <line x1="0" y1="0" x2="0" y2="8" stroke="#7dd3c0" stroke-width="4" />
        <!-- 두 번째 라인 -->
        <line x1="0" y1="15" x2="130" y2="15" stroke="#7dd3c0" stroke-width="4" />
        <line x1="0" y1="15" x2="0" y2="23" stroke="#7dd3c0" stroke-width="4" />
        <!-- 지그재그 패턴 -->
        <path d="M 0 30 L 8 32 L 16 28 L 24 35 L 32 31 L 40 38 L 48 29 L 56 36 L 64 33 L 72 31 L 80 37 L 88 34 L 96 32 L 104 39 L 112 35 L 120 33 L 128 36 L 130 35" stroke="#7dd3c0" stroke-width="1" fill="none" stroke-linecap="round" stroke-linejoin="round" />
        <!-- 하단 기준선과 눈금 -->
        <line x1="0" y1="53" x2="130" y2="53" stroke="#7dd3c0" stroke-width="1" />
        <line x1="0" y1="30" x2="0" y2="53" stroke="#7dd3c0" stroke-width="1" />
        <!-- 눈금들 -->
        <line x1="25" y1="51" x2="25" y2="53" stroke="#7dd3c0" stroke-width="1" />
        <line x1="50" y1="51" x2="50" y2="53" stroke="#7dd3c0" stroke-width="1" />
        <line x1="75" y1="51" x2="75" y2="53" stroke="#7dd3c0" stroke-width="1" />
        <line x1="100" y1="51" x2="100" y2="53" stroke="#7dd3c0" stroke-width="1" />
        <line x1="125" y1="51" x2="125" y2="53" stroke="#7dd3c0" stroke-width="1" />
    </g>
</svg>